<svg width="501" height="312" viewBox="0 0 501 312" fill="none" xmlns="http://www.w3.org/2000/svg">
<rect x="5" y="5" width="491" height="302" rx="45" fill="#A0E73F" stroke="white" stroke-width="10"/>
<rect x="25" y="27" width="50" height="50" rx="25" fill="#C12439"/>
<path d="M55.6395 46.93L51.4995 52.03L55.6395 57.16C55.8195 57.38 56.0495 57.49 56.3295 57.49H60.0795C60.3595 57.49 60.4995 57.63 60.4995 57.91V59.35C60.4995 59.45 60.4595 59.55 60.3795 59.65C60.2995 59.73 60.1995 59.77 60.0795 59.77H55.2795C55.1795 59.77 55.0595 59.74 54.9195 59.68C54.7795 59.62 54.6795 59.54 54.6195 59.44L50.2095 54.01L45.8295 59.44C45.6495 59.66 45.4195 59.77 45.1395 59.77L40.3395 59.77C40.2395 59.77 40.1495 59.73 40.0695 59.65C39.9695 59.55 39.9195 59.45 39.9195 59.35V57.91C39.9195 57.79 39.9695 57.69 40.0695 57.61C40.1495 57.53 40.2395 57.49 40.3395 57.49H44.1195C44.2195 57.49 44.3395 57.46 44.4795 57.4C44.6195 57.34 44.7195 57.26 44.7795 57.16L48.9195 52.03L44.7795 46.93C44.7195 46.83 44.6195 46.75 44.4795 46.69C44.3395 46.63 44.2195 46.6 44.1195 46.6H40.3395C40.2395 46.6 40.1495 46.56 40.0695 46.48C39.9695 46.4 39.9195 46.3 39.9195 46.18V44.74C39.9195 44.62 39.9695 44.52 40.0695 44.44C40.1495 44.36 40.2395 44.32 40.3395 44.32H45.1395C45.4195 44.32 45.6495 44.43 45.8295 44.65L50.2095 50.05L54.6195 44.65C54.6795 44.55 54.7795 44.47 54.9195 44.41C55.0595 44.35 55.1795 44.32 55.2795 44.32L60.0795 44.32C60.3595 44.32 60.4995 44.46 60.4995 44.74V46.18C60.4995 46.46 60.3595 46.6 60.0795 46.6H56.3295C56.0495 46.6 55.8195 46.71 55.6395 46.93Z" fill="#A0E73F"/>
<path d="M38.7 160C36.7 160 34.8 159.633 33 158.9C31.2667 158.1 29.7333 157.067 28.4 155.8C27.1333 154.467 26.1 152.9 25.3 151.1C24.5667 149.3 24.2 147.4 24.2 145.4V106C24.2 104 24.5667 102.133 25.3 100.4C26.1 98.6 27.1333 97.0333 28.4 95.7C29.7333 94.3667 31.2667 93.3333 33 92.6C34.8 91.8 36.7 91.4 38.7 91.4H61C63 91.4 64.8667 91.8 66.6 92.6C68.4 93.3333 69.9667 94.3667 71.3 95.7C72.6333 97.0333 73.6667 98.6 74.4 100.4C75.2 102.133 75.6 104 75.6 106V145.4C75.6 147.4 75.2 149.3 74.4 151.1C73.6667 152.9 72.6333 154.467 71.3 155.8C69.9667 157.067 68.4 158.1 66.6 158.9C64.8667 159.633 63 160 61 160H38.7ZM38.7 99C36.7667 99 35.1 99.7 33.7 101.1C32.3667 102.433 31.7 104.067 31.7 106V145.4C31.7 147.333 32.3667 149 33.7 150.4C35.1 151.733 36.7667 152.4 38.7 152.4H61C62.9333 152.4 64.5667 151.733 65.9 150.4C67.3 149 68 147.333 68 145.4V106C68 104.067 67.3 102.433 65.9 101.1C64.5667 99.7 62.9333 99 61 99H38.7ZM68 271.6V242.5H31.7V271.6C31.7 272.533 31.2333 273 30.3 273H25.6C24.6667 273 24.2 272.533 24.2 271.6V205.8C24.2 204.867 24.6667 204.4 25.6 204.4H30.3C31.2333 204.4 31.7 204.867 31.7 205.8V234.9H68V205.8C68 204.867 68.4667 204.4 69.4 204.4H74.2C75.1333 204.4 75.6 204.867 75.6 205.8V271.6C75.6 272.533 75.1333 273 74.2 273H69.4C68.4667 273 68 272.533 68 271.6ZM128.829 204.4C129.229 204.4 129.596 204.533 129.929 204.8C130.329 205.067 130.596 205.367 130.729 205.7L144.629 240.5C144.762 240.833 144.862 241.267 144.929 241.8C145.062 242.333 145.129 242.8 145.129 243.2V271.6C145.129 272.533 144.662 273 143.729 273H139.029C138.096 273 137.629 272.533 137.629 271.6V253.1H101.329V271.6C101.329 272.533 100.862 273 99.9289 273H95.1289C94.1956 273 93.7289 272.533 93.7289 271.6V243.2C93.7289 242.8 93.7622 242.333 93.8289 241.8C93.9622 241.267 94.0956 240.833 94.2289 240.5L108.129 205.7C108.262 205.367 108.529 205.067 108.929 204.8C109.329 204.533 109.696 204.4 110.029 204.4H128.829ZM137.629 245.6V243.2L125.129 212H113.829L101.329 243.2V245.6H137.629ZM214.955 223.6C214.955 224.533 214.489 225 213.555 225H208.755C207.822 225 207.355 224.533 207.355 223.6V218.9C207.289 216.967 206.589 215.333 205.255 214C203.922 212.667 202.289 212 200.355 212H178.055C176.122 212 174.455 212.7 173.055 214.1C171.722 215.433 171.055 217.067 171.055 219V258.4C171.055 260.333 171.722 262 173.055 263.4C174.455 264.733 176.122 265.4 178.055 265.4H200.355C202.289 265.4 203.922 264.767 205.255 263.5C206.589 262.167 207.289 260.533 207.355 258.6V253.8C207.355 253.467 207.489 253.167 207.755 252.9C208.022 252.567 208.355 252.4 208.755 252.4H213.555C213.955 252.4 214.289 252.567 214.555 252.9C214.822 253.167 214.955 253.467 214.955 253.8V258.6C214.955 260.6 214.555 262.467 213.755 264.2C212.955 265.933 211.889 267.467 210.555 268.8C209.289 270.067 207.755 271.1 205.955 271.9C204.222 272.633 202.355 273 200.355 273H178.055C176.055 273 174.155 272.633 172.355 271.9C170.622 271.1 169.089 270.067 167.755 268.8C166.489 267.467 165.455 265.9 164.655 264.1C163.922 262.3 163.555 260.4 163.555 258.4V219C163.555 217 163.922 215.133 164.655 213.4C165.455 211.6 166.489 210.033 167.755 208.7C169.089 207.367 170.622 206.333 172.355 205.6C174.155 204.8 176.055 204.4 178.055 204.4H200.355C202.355 204.4 204.222 204.8 205.955 205.6C207.755 206.333 209.289 207.367 210.555 208.7C211.889 209.967 212.955 211.5 213.755 213.3C214.555 215.033 214.955 216.9 214.955 218.9V223.6Z" fill="black"/>
<path d="M39.7756 126.45V123.6C39.7756 123.34 39.8856 123.12 40.1056 122.94L46.1356 118.59C46.3756 118.45 46.4956 118.51 46.4956 118.77V121.29C46.4956 121.55 46.3756 121.77 46.1356 121.95L41.4556 125.04L46.1356 128.1C46.3756 128.28 46.4956 128.5 46.4956 128.76V131.28C46.4956 131.54 46.3756 131.6 46.1356 131.46L40.1056 127.11C39.8856 126.93 39.7756 126.71 39.7756 126.45ZM48.4456 126.45V123.6C48.4456 123.5 48.4756 123.39 48.5356 123.27C48.6156 123.13 48.7056 123.02 48.8056 122.94L54.8356 118.59C55.0756 118.45 55.1956 118.51 55.1956 118.77V121.29C55.1956 121.55 55.0756 121.77 54.8356 121.95L50.1556 125.04L54.8356 128.1C55.0756 128.28 55.1956 128.5 55.1956 128.76V131.28C55.1956 131.54 55.0756 131.6 54.8356 131.46L48.8056 127.11C48.7056 127.03 48.6156 126.93 48.5356 126.81C48.4756 126.67 48.4456 126.55 48.4456 126.45ZM73.8336 114.84C73.8336 114.56 73.9736 114.42 74.2536 114.42H75.6936C75.9736 114.42 76.1136 114.56 76.1136 114.84V134.58C76.1136 134.86 75.9736 135 75.6936 135H74.2536C73.9736 135 73.8336 134.86 73.8336 134.58V126.48L63.8436 134.73C63.6236 134.91 63.3736 135 63.0936 135H61.0836C60.9836 135 60.8836 134.96 60.7836 134.88C60.7036 134.8 60.6636 134.7 60.6636 134.58V114.84C60.6636 114.72 60.7036 114.62 60.7836 114.54C60.8836 114.46 60.9836 114.42 61.0836 114.42H62.5236C62.8036 114.42 62.9436 114.56 62.9436 114.84V132.45L73.8336 123.45V114.84ZM94.7516 134.58V125.85H83.8616V134.58C83.8616 134.86 83.7216 135 83.4416 135H82.0316C81.7516 135 81.6116 134.86 81.6116 134.58V114.84C81.6116 114.56 81.7516 114.42 82.0316 114.42H83.4416C83.7216 114.42 83.8616 114.56 83.8616 114.84V123.57H94.7516V114.84C94.7516 114.56 94.8916 114.42 95.1716 114.42H96.6116C96.8916 114.42 97.0316 114.56 97.0316 114.84V134.58C97.0316 134.86 96.8916 135 96.6116 135H95.1716C94.8916 135 94.7516 134.86 94.7516 134.58ZM117.47 114.42C117.75 114.42 117.89 114.56 117.89 114.84V134.58C117.89 134.7 117.85 134.8 117.77 134.88C117.67 134.96 117.57 135 117.47 135H116.03C115.75 135 115.61 134.86 115.61 134.58V116.7H104.75V134.58C104.75 134.86 104.61 135 104.33 135H102.89C102.79 135 102.7 134.96 102.62 134.88C102.52 134.8 102.47 134.7 102.47 134.58V114.84C102.47 114.72 102.52 114.62 102.62 114.54C102.7 114.46 102.79 114.42 102.89 114.42H117.47ZM138.389 114.42C138.669 114.42 138.809 114.56 138.809 114.84V130.62C138.809 131.22 138.689 131.79 138.449 132.33C138.229 132.87 137.919 133.34 137.519 133.74C137.119 134.12 136.649 134.43 136.109 134.67C135.589 134.89 135.029 135 134.429 135H127.739C127.159 135 126.619 134.9 126.119 134.7C125.619 134.48 125.169 134.19 124.769 133.83C124.389 133.47 124.069 133.04 123.809 132.54C123.569 132.06 123.429 131.54 123.389 130.98V129.24C123.389 129.14 123.429 129.05 123.509 128.97C123.589 128.87 123.689 128.82 123.809 128.82H125.219C125.339 128.82 125.439 128.87 125.519 128.97C125.599 129.05 125.639 129.14 125.639 129.24V130.68C125.659 131.26 125.869 131.75 126.269 132.15C126.669 132.53 127.159 132.72 127.739 132.72H134.429C135.009 132.72 135.499 132.52 135.899 132.12C136.319 131.7 136.529 131.2 136.529 130.62V125.85H127.739C127.139 125.85 126.569 125.73 126.029 125.49C125.509 125.27 125.049 124.96 124.649 124.56C124.249 124.18 123.939 123.72 123.719 123.18C123.479 122.64 123.359 122.07 123.359 121.47V114.84C123.359 114.72 123.409 114.62 123.509 114.54C123.589 114.46 123.679 114.42 123.779 114.42H125.219C125.499 114.42 125.639 114.56 125.639 114.84V121.47C125.639 122.05 125.839 122.54 126.239 122.94L126.419 123.09C126.799 123.41 127.239 123.57 127.739 123.57H136.529V114.84C136.529 114.72 136.569 114.62 136.649 114.54C136.749 114.46 136.849 114.42 136.949 114.42H138.389ZM150.877 134.58V116.7H144.727C144.447 116.7 144.307 116.56 144.307 116.28V114.84C144.307 114.56 144.447 114.42 144.727 114.42H159.307C159.587 114.42 159.727 114.56 159.727 114.84V116.28C159.727 116.56 159.587 116.7 159.307 116.7H153.157V134.58C153.157 134.7 153.107 134.8 153.007 134.88C152.927 134.96 152.837 135 152.737 135H151.297C151.017 135 150.877 134.86 150.877 134.58ZM174.255 127.8L178.935 124.71L174.255 121.62C174.155 121.56 174.065 121.47 173.985 121.35C173.925 121.21 173.895 121.08 173.895 120.96V118.47C173.895 118.35 173.925 118.27 173.985 118.23C174.065 118.19 174.155 118.21 174.255 118.29L180.285 122.64C180.385 122.7 180.465 122.8 180.525 122.94C180.605 123.06 180.645 123.18 180.645 123.3V126.12C180.645 126.24 180.605 126.37 180.525 126.51C180.465 126.63 180.385 126.72 180.285 126.78L174.255 131.13C174.155 131.21 174.065 131.23 173.985 131.19C173.925 131.15 173.895 131.07 173.895 130.95V128.46C173.895 128.34 173.925 128.22 173.985 128.1C174.065 127.96 174.155 127.86 174.255 127.8ZM165.555 127.8L170.235 124.71L165.555 121.62C165.455 121.56 165.375 121.47 165.315 121.35C165.255 121.21 165.225 121.08 165.225 120.96V118.47C165.225 118.35 165.255 118.27 165.315 118.23C165.375 118.19 165.455 118.21 165.555 118.29L171.585 122.64C171.685 122.7 171.765 122.8 171.825 122.94C171.905 123.06 171.945 123.18 171.945 123.3V126.12C171.945 126.24 171.905 126.37 171.825 126.51C171.765 126.63 171.685 126.72 171.585 126.78L165.555 131.13C165.455 131.21 165.375 131.23 165.315 131.19C165.255 131.15 165.225 131.07 165.225 130.95V128.46C165.225 128.34 165.255 128.22 165.315 128.1C165.375 127.96 165.455 127.86 165.555 127.8ZM222.002 114.42C222.282 114.42 222.422 114.56 222.422 114.84V130.62C222.422 131.22 222.302 131.79 222.062 132.33C221.842 132.87 221.532 133.34 221.132 133.74C220.732 134.12 220.262 134.43 219.722 134.67C219.202 134.89 218.642 135 218.042 135H211.352C210.772 135 210.232 134.9 209.732 134.7C209.232 134.48 208.782 134.19 208.382 133.83C208.002 133.47 207.682 133.04 207.422 132.54C207.182 132.06 207.042 131.54 207.002 130.98V129.24C207.002 129.14 207.042 129.05 207.122 128.97C207.202 128.87 207.302 128.82 207.422 128.82H208.832C208.952 128.82 209.052 128.87 209.132 128.97C209.212 129.05 209.252 129.14 209.252 129.24V130.68C209.272 131.26 209.482 131.75 209.882 132.15C210.282 132.53 210.772 132.72 211.352 132.72H218.042C218.622 132.72 219.112 132.52 219.512 132.12C219.932 131.7 220.142 131.2 220.142 130.62V125.85H211.352C210.752 125.85 210.182 125.73 209.642 125.49C209.122 125.27 208.662 124.96 208.262 124.56C207.862 124.18 207.552 123.72 207.332 123.18C207.092 122.64 206.972 122.07 206.972 121.47V114.84C206.972 114.72 207.022 114.62 207.122 114.54C207.202 114.46 207.292 114.42 207.392 114.42H208.832C209.112 114.42 209.252 114.56 209.252 114.84V121.47C209.252 122.05 209.452 122.54 209.852 122.94L210.032 123.09C210.412 123.41 210.852 123.57 211.352 123.57H220.142V114.84C220.142 114.72 220.182 114.62 220.262 114.54C220.362 114.46 220.462 114.42 220.562 114.42H222.002ZM243.34 119.64C243.34 119.92 243.23 120.15 243.01 120.33L237.61 124.71L243.01 129.12C243.11 129.18 243.19 129.28 243.25 129.42C243.31 129.56 243.34 129.68 243.34 129.78V134.58C243.34 134.86 243.2 135 242.92 135H241.48C241.2 135 241.06 134.86 241.06 134.58V130.83C241.06 130.55 240.95 130.32 240.73 130.14L236.77 126.9V134.58C236.77 134.7 236.72 134.8 236.62 134.88C236.52 134.96 236.42 135 236.32 135H234.91C234.61 135 234.46 134.86 234.46 134.58V126.93L230.5 130.14C230.28 130.32 230.17 130.55 230.17 130.83V134.58C230.17 134.86 230.03 135 229.75 135H228.31C228.21 135 228.11 134.96 228.01 134.88C227.93 134.8 227.89 134.7 227.89 134.58V129.78C227.89 129.68 227.92 129.56 227.98 129.42C228.04 129.28 228.12 129.18 228.22 129.12L233.65 124.71L228.22 120.33C228 120.15 227.89 119.92 227.89 119.64V114.84C227.89 114.74 227.93 114.65 228.01 114.57C228.11 114.47 228.21 114.42 228.31 114.42H229.75C229.87 114.42 229.97 114.47 230.05 114.57C230.13 114.65 230.17 114.74 230.17 114.84V118.62C230.17 118.72 230.2 118.84 230.26 118.98C230.32 119.12 230.4 119.22 230.5 119.28L234.46 122.49V114.84C234.46 114.72 234.51 114.62 234.61 114.54C234.71 114.46 234.81 114.42 234.91 114.42H236.32C236.62 114.42 236.77 114.56 236.77 114.84V122.52L240.73 119.28C240.83 119.22 240.91 119.12 240.97 118.98C241.03 118.84 241.06 118.72 241.06 118.62V114.84C241.06 114.74 241.1 114.65 241.18 114.57C241.26 114.47 241.36 114.42 241.48 114.42H242.92C243.04 114.42 243.14 114.47 243.22 114.57C243.3 114.65 243.34 114.74 243.34 114.84V119.64ZM249.288 134.58V114.84C249.288 114.56 249.428 114.42 249.708 114.42H263.688C263.968 114.42 264.108 114.56 264.108 114.84V116.28C264.108 116.56 263.968 116.7 263.688 116.7H251.538V123.57H262.068C262.168 123.57 262.258 123.62 262.338 123.72C262.438 123.8 262.488 123.89 262.488 123.99V125.43C262.488 125.55 262.438 125.65 262.338 125.73C262.258 125.81 262.168 125.85 262.068 125.85H251.538V132.72H263.688C263.808 132.72 263.908 132.77 263.988 132.87C264.068 132.95 264.108 133.04 264.108 133.14V134.58C264.108 134.86 263.968 135 263.688 135H249.708C249.428 135 249.288 134.86 249.288 134.58ZM303.125 114.78C303.185 114.68 303.275 114.6 303.395 114.54C303.535 114.46 303.665 114.42 303.785 114.42H305.615C305.895 114.42 306.035 114.56 306.035 114.84V134.58C306.035 134.86 305.895 135 305.615 135H304.175C303.895 135 303.755 134.86 303.755 134.58V117.27L299.405 124.35C299.345 124.45 299.245 124.54 299.105 124.62C298.985 124.68 298.875 124.71 298.775 124.71H297.875C297.755 124.71 297.625 124.68 297.485 124.62C297.365 124.54 297.275 124.45 297.215 124.35L292.865 117.27V134.58C292.865 134.86 292.725 135 292.445 135H291.035C290.755 135 290.615 134.86 290.615 134.58V114.84C290.615 114.56 290.755 114.42 291.035 114.42H292.865C292.965 114.42 293.075 114.46 293.195 114.54C293.335 114.6 293.435 114.68 293.495 114.78L298.325 121.98L303.125 114.78ZM324.673 134.58V125.85H313.783V134.58C313.783 134.86 313.643 135 313.363 135H311.953C311.673 135 311.533 134.86 311.533 134.58V114.84C311.533 114.56 311.673 114.42 311.953 114.42H313.363C313.643 114.42 313.783 114.56 313.783 114.84V123.57H324.673V114.84C324.673 114.56 324.813 114.42 325.093 114.42H326.533C326.813 114.42 326.953 114.56 326.953 114.84V134.58C326.953 134.86 326.813 135 326.533 135H325.093C324.813 135 324.673 134.86 324.673 134.58ZM336.772 135C336.172 135 335.602 134.89 335.062 134.67C334.542 134.43 334.082 134.12 333.682 133.74C333.302 133.34 332.992 132.87 332.752 132.33C332.532 131.79 332.422 131.22 332.422 130.62V118.8C332.422 118.2 332.532 117.64 332.752 117.12C332.992 116.58 333.302 116.11 333.682 115.71C334.082 115.31 334.542 115 335.062 114.78C335.602 114.54 336.172 114.42 336.772 114.42H343.462C344.062 114.42 344.622 114.54 345.142 114.78C345.682 115 346.152 115.31 346.552 115.71C346.952 116.11 347.262 116.58 347.482 117.12C347.722 117.64 347.842 118.2 347.842 118.8V130.62C347.842 131.22 347.722 131.79 347.482 132.33C347.262 132.87 346.952 133.34 346.552 133.74C346.152 134.12 345.682 134.43 345.142 134.67C344.622 134.89 344.062 135 343.462 135H336.772ZM336.772 116.7C336.192 116.7 335.692 116.91 335.272 117.33C334.872 117.73 334.672 118.22 334.672 118.8V130.62C334.672 131.2 334.872 131.7 335.272 132.12C335.692 132.52 336.192 132.72 336.772 132.72H343.462C344.042 132.72 344.532 132.52 344.932 132.12C345.352 131.7 345.562 131.2 345.562 130.62V118.8C345.562 118.22 345.352 117.73 344.932 117.33C344.532 116.91 344.042 116.7 343.462 116.7H336.772ZM354.54 135C354.44 135 354.35 134.96 354.27 134.88C354.17 134.8 354.12 134.7 354.12 134.58V114.84C354.12 114.72 354.17 114.62 354.27 114.54C354.35 114.46 354.44 114.42 354.54 114.42H368.13C368.41 114.42 368.55 114.56 368.55 114.84V116.28C368.55 116.38 368.51 116.48 368.43 116.58C368.35 116.66 368.25 116.7 368.13 116.7H356.4V134.58C356.4 134.86 356.26 135 355.98 135H354.54ZM378.608 135C378.008 135 377.438 134.89 376.898 134.67C376.378 134.43 375.918 134.12 375.518 133.74C375.138 133.34 374.828 132.87 374.588 132.33C374.368 131.79 374.258 131.22 374.258 130.62V118.8C374.258 118.2 374.368 117.64 374.588 117.12C374.828 116.58 375.138 116.11 375.518 115.71C375.918 115.31 376.378 115 376.898 114.78C377.438 114.54 378.008 114.42 378.608 114.42H385.298C385.898 114.42 386.458 114.54 386.978 114.78C387.518 115 387.988 115.31 388.388 115.71C388.788 116.11 389.098 116.58 389.318 117.12C389.558 117.64 389.678 118.2 389.678 118.8V130.62C389.678 131.22 389.558 131.79 389.318 132.33C389.098 132.87 388.788 133.34 388.388 133.74C387.988 134.12 387.518 134.43 386.978 134.67C386.458 134.89 385.898 135 385.298 135H378.608ZM378.608 116.7C378.028 116.7 377.528 116.91 377.108 117.33C376.708 117.73 376.508 118.22 376.508 118.8V130.62C376.508 131.2 376.708 131.7 377.108 132.12C377.528 132.52 378.028 132.72 378.608 132.72H385.298C385.878 132.72 386.368 132.52 386.768 132.12C387.188 131.7 387.398 131.2 387.398 130.62V118.8C387.398 118.22 387.188 117.73 386.768 117.33C386.368 116.91 385.878 116.7 385.298 116.7H378.608ZM431.305 125.22C431.345 125.34 431.385 125.48 431.425 125.64C431.465 125.8 431.485 125.93 431.485 126.03V134.58C431.485 134.7 431.445 134.8 431.365 134.88C431.265 134.96 431.165 135 431.065 135H429.625C429.345 135 429.205 134.86 429.205 134.58V126.48C429.205 126.36 429.195 126.22 429.175 126.06C429.135 125.9 429.095 125.77 429.055 125.67L425.455 116.7H422.065L418.465 125.67C418.425 125.77 418.395 125.9 418.375 126.06C418.335 126.22 418.315 126.36 418.315 126.48V134.58C418.315 134.86 418.175 135 417.895 135H416.455C416.175 135 416.035 134.86 416.035 134.58V126.03C416.035 125.93 416.055 125.8 416.095 125.64C416.115 125.48 416.145 125.34 416.185 125.22L420.355 114.81C420.395 114.71 420.475 114.62 420.595 114.54C420.715 114.46 420.835 114.42 420.955 114.42H426.565C426.685 114.42 426.805 114.46 426.925 114.54C427.025 114.62 427.095 114.71 427.135 114.81L431.305 125.22ZM437.403 134.58V114.84C437.403 114.56 437.543 114.42 437.823 114.42H451.803C452.083 114.42 452.223 114.56 452.223 114.84V116.28C452.223 116.56 452.083 116.7 451.803 116.7H439.653V123.57H450.183C450.283 123.57 450.373 123.62 450.453 123.72C450.553 123.8 450.603 123.89 450.603 123.99V125.43C450.603 125.55 450.553 125.65 450.453 125.73C450.373 125.81 450.283 125.85 450.183 125.85H439.653V132.72H451.803C451.923 132.72 452.023 132.77 452.103 132.87C452.183 132.95 452.223 133.04 452.223 133.14V134.58C452.223 134.86 452.083 135 451.803 135H437.823C437.543 135 437.403 134.86 437.403 134.58ZM464.412 134.58V116.7H458.262C457.982 116.7 457.842 116.56 457.842 116.28V114.84C457.842 114.56 457.982 114.42 458.262 114.42H472.842C473.122 114.42 473.262 114.56 473.262 114.84V116.28C473.262 116.56 473.122 116.7 472.842 116.7H466.692V134.58C466.692 134.7 466.642 134.8 466.542 134.88C466.462 134.96 466.372 135 466.272 135H464.832C464.552 135 464.412 134.86 464.412 134.58ZM117.832 154.18C117.832 154.46 117.692 154.6 117.412 154.6H115.972C115.692 154.6 115.552 154.46 115.552 154.18V152.77C115.532 152.19 115.322 151.7 114.922 151.3C114.522 150.9 114.032 150.7 113.452 150.7H106.762C106.182 150.7 105.682 150.91 105.262 151.33C104.862 151.73 104.662 152.22 104.662 152.8V164.62C104.662 165.2 104.862 165.7 105.262 166.12C105.682 166.52 106.182 166.72 106.762 166.72H113.452C114.032 166.72 114.522 166.53 114.922 166.15C115.322 165.75 115.532 165.26 115.552 164.68V163.24C115.552 163.14 115.592 163.05 115.672 162.97C115.752 162.87 115.852 162.82 115.972 162.82H117.412C117.532 162.82 117.632 162.87 117.712 162.97C117.792 163.05 117.832 163.14 117.832 163.24V164.68C117.832 165.28 117.712 165.84 117.472 166.36C117.232 166.88 116.912 167.34 116.512 167.74C116.132 168.12 115.672 168.43 115.132 168.67C114.612 168.89 114.052 169 113.452 169H106.762C106.162 169 105.592 168.89 105.052 168.67C104.532 168.43 104.072 168.12 103.672 167.74C103.292 167.34 102.982 166.87 102.742 166.33C102.522 165.79 102.412 165.22 102.412 164.62V152.8C102.412 152.2 102.522 151.64 102.742 151.12C102.982 150.58 103.292 150.11 103.672 149.71C104.072 149.31 104.532 149 105.052 148.78C105.592 148.54 106.162 148.42 106.762 148.42H113.452C114.052 148.42 114.612 148.54 115.132 148.78C115.672 149 116.132 149.31 116.512 149.71C116.912 150.09 117.232 150.55 117.472 151.09C117.712 151.61 117.832 152.17 117.832 152.77V154.18ZM127.68 169C127.08 169 126.51 168.89 125.97 168.67C125.45 168.43 124.99 168.12 124.59 167.74C124.21 167.34 123.9 166.87 123.66 166.33C123.44 165.79 123.33 165.22 123.33 164.62V152.8C123.33 152.2 123.44 151.64 123.66 151.12C123.9 150.58 124.21 150.11 124.59 149.71C124.99 149.31 125.45 149 125.97 148.78C126.51 148.54 127.08 148.42 127.68 148.42H134.37C134.97 148.42 135.53 148.54 136.05 148.78C136.59 149 137.06 149.31 137.46 149.71C137.86 150.11 138.17 150.58 138.39 151.12C138.63 151.64 138.75 152.2 138.75 152.8V164.62C138.75 165.22 138.63 165.79 138.39 166.33C138.17 166.87 137.86 167.34 137.46 167.74C137.06 168.12 136.59 168.43 136.05 168.67C135.53 168.89 134.97 169 134.37 169H127.68ZM127.68 150.7C127.1 150.7 126.6 150.91 126.18 151.33C125.78 151.73 125.58 152.22 125.58 152.8V164.62C125.58 165.2 125.78 165.7 126.18 166.12C126.6 166.52 127.1 166.72 127.68 166.72H134.37C134.95 166.72 135.44 166.52 135.84 166.12C136.26 165.7 136.47 165.2 136.47 164.62V152.8C136.47 152.22 136.26 151.73 135.84 151.33C135.44 150.91 134.95 150.7 134.37 150.7H127.68ZM155.288 148.42C155.888 148.42 156.448 148.54 156.968 148.78C157.508 149 157.978 149.31 158.378 149.71C158.778 150.11 159.088 150.58 159.308 151.12C159.548 151.64 159.668 152.2 159.668 152.8V155.47C159.668 156.47 159.358 157.36 158.738 158.14L158.288 158.71L158.738 159.28C159.358 160.08 159.668 160.97 159.668 161.95V164.62C159.668 165.22 159.548 165.79 159.308 166.33C159.088 166.87 158.778 167.34 158.378 167.74C157.978 168.12 157.508 168.43 156.968 168.67C156.448 168.89 155.888 169 155.288 169H148.598C148.018 169 147.478 168.9 146.978 168.7C146.478 168.48 146.028 168.19 145.628 167.83C145.248 167.47 144.928 167.05 144.668 166.57C144.428 166.07 144.288 165.54 144.248 164.98V164.68V163.24C144.248 163.14 144.288 163.05 144.368 162.97C144.448 162.87 144.548 162.82 144.668 162.82H146.078C146.198 162.82 146.298 162.87 146.378 162.97C146.458 163.05 146.498 163.14 146.498 163.24V164.68C146.518 165.26 146.728 165.75 147.128 166.15C147.528 166.53 148.018 166.72 148.598 166.72H155.288C155.868 166.72 156.358 166.52 156.758 166.12C157.178 165.7 157.388 165.2 157.388 164.62V161.95C157.388 161.37 157.178 160.88 156.758 160.48C156.358 160.06 155.868 159.85 155.288 159.85H148.748C148.648 159.85 148.548 159.81 148.448 159.73C148.368 159.65 148.328 159.55 148.328 159.43V157.99C148.328 157.89 148.368 157.8 148.448 157.72C148.548 157.62 148.648 157.57 148.748 157.57H155.288C155.868 157.57 156.358 157.37 156.758 156.97C157.178 156.55 157.388 156.05 157.388 155.47V152.8C157.388 152.22 157.178 151.73 156.758 151.33C156.358 150.91 155.868 150.7 155.288 150.7H148.598C148.018 150.7 147.528 150.9 147.128 151.3C146.728 151.7 146.518 152.19 146.498 152.77V154.18C146.498 154.46 146.358 154.6 146.078 154.6H144.668C144.388 154.6 144.248 154.46 144.248 154.18V152.77V152.47C144.288 151.91 144.428 151.39 144.668 150.91C144.928 150.41 145.248 149.98 145.628 149.62C146.028 149.24 146.478 148.95 146.978 148.75C147.478 148.53 148.018 148.42 148.598 148.42H155.288ZM168.736 166.72H177.016V150.7H170.836C170.256 150.7 169.756 150.9 169.336 151.3C168.936 151.72 168.736 152.22 168.736 152.8V166.72ZM180.166 166.72C180.446 166.72 180.586 166.86 180.586 167.14V171.46C180.586 171.74 180.446 171.88 180.166 171.88H178.726C178.446 171.88 178.306 171.74 178.306 171.46V169H167.446V171.46C167.446 171.74 167.306 171.88 167.026 171.88H165.586C165.306 171.88 165.166 171.74 165.166 171.46V167.14C165.166 166.86 165.306 166.72 165.586 166.72H166.456V152.8C166.456 152.2 166.566 151.63 166.786 151.09C167.026 150.55 167.346 150.08 167.746 149.68C168.146 149.3 168.606 148.99 169.126 148.75C169.666 148.53 170.236 148.42 170.836 148.42H178.876C179.156 148.42 179.296 148.56 179.296 148.84V166.72H180.166ZM196.584 148.42C196.704 148.42 196.814 148.46 196.914 148.54C197.034 148.62 197.114 148.71 197.154 148.81L201.324 159.25C201.364 159.35 201.394 159.48 201.414 159.64C201.454 159.8 201.474 159.94 201.474 160.06V168.58C201.474 168.86 201.334 169 201.054 169H199.644C199.364 169 199.224 168.86 199.224 168.58V163.03H188.334V168.58C188.334 168.86 188.194 169 187.914 169H186.474C186.194 169 186.054 168.86 186.054 168.58V160.06C186.054 159.94 186.064 159.8 186.084 159.64C186.124 159.48 186.164 159.35 186.204 159.25L190.374 148.81C190.414 148.71 190.494 148.62 190.614 148.54C190.734 148.46 190.844 148.42 190.944 148.42H196.584ZM199.224 160.78V160.06L195.474 150.7H192.084L188.334 160.06V160.78H199.224ZM207.452 168.58V148.84C207.452 148.56 207.592 148.42 207.872 148.42H221.852C222.132 148.42 222.272 148.56 222.272 148.84V150.28C222.272 150.56 222.132 150.7 221.852 150.7H209.702V157.57H220.232C220.332 157.57 220.422 157.62 220.502 157.72C220.602 157.8 220.652 157.89 220.652 157.99V159.43C220.652 159.55 220.602 159.65 220.502 159.73C220.422 159.81 220.332 159.85 220.232 159.85H209.702V166.72H221.852C221.972 166.72 222.072 166.77 222.152 166.87C222.232 166.95 222.272 167.04 222.272 167.14V168.58C222.272 168.86 222.132 169 221.852 169H207.872C207.592 169 207.452 168.86 207.452 168.58ZM234.461 168.58V150.7H228.311C228.031 150.7 227.891 150.56 227.891 150.28V148.84C227.891 148.56 228.031 148.42 228.311 148.42H242.891C243.171 148.42 243.311 148.56 243.311 148.84V150.28C243.311 150.56 243.171 150.7 242.891 150.7H236.741V168.58C236.741 168.7 236.691 168.8 236.591 168.88C236.511 168.96 236.421 169 236.321 169H234.881C234.601 169 234.461 168.86 234.461 168.58ZM284.668 148.42C284.948 148.42 285.088 148.56 285.088 148.84V168.58C285.088 168.7 285.048 168.8 284.968 168.88C284.868 168.96 284.768 169 284.668 169H283.228C282.948 169 282.808 168.86 282.808 168.58V150.7H271.948V168.58C271.948 168.86 271.808 169 271.528 169H270.088C269.988 169 269.898 168.96 269.818 168.88C269.718 168.8 269.668 168.7 269.668 168.58V148.84C269.668 148.72 269.718 148.62 269.818 148.54C269.898 148.46 269.988 148.42 270.088 148.42H284.668ZM290.556 168.58V148.84C290.556 148.72 290.596 148.62 290.676 148.54C290.776 148.46 290.876 148.42 290.976 148.42H301.626C302.226 148.42 302.786 148.54 303.306 148.78C303.846 149 304.316 149.31 304.716 149.71C305.116 150.11 305.426 150.58 305.646 151.12C305.886 151.64 306.006 152.2 306.006 152.8V155.47C306.006 156.07 305.886 156.64 305.646 157.18C305.426 157.72 305.116 158.19 304.716 158.59C304.316 158.97 303.846 159.28 303.306 159.52C302.786 159.74 302.226 159.85 301.626 159.85H292.836V168.58C292.836 168.86 292.696 169 292.416 169H290.976C290.876 169 290.776 168.96 290.676 168.88C290.596 168.8 290.556 168.7 290.556 168.58ZM292.836 157.57H301.626C302.206 157.57 302.696 157.37 303.096 156.97C303.516 156.55 303.726 156.05 303.726 155.47V152.8C303.726 152.22 303.516 151.73 303.096 151.33C302.696 150.91 302.206 150.7 301.626 150.7H292.836V157.57ZM311.954 168.58V148.84C311.954 148.56 312.094 148.42 312.374 148.42H326.354C326.634 148.42 326.774 148.56 326.774 148.84V150.28C326.774 150.56 326.634 150.7 326.354 150.7H314.204V157.57H324.734C324.834 157.57 324.924 157.62 325.004 157.72C325.104 157.8 325.154 157.89 325.154 157.99V159.43C325.154 159.55 325.104 159.65 325.004 159.73C324.924 159.81 324.834 159.85 324.734 159.85H314.204V166.72H326.354C326.474 166.72 326.574 166.77 326.654 166.87C326.734 166.95 326.774 167.04 326.774 167.14V168.58C326.774 168.86 326.634 169 326.354 169H312.374C312.094 169 311.954 168.86 311.954 168.58ZM344.963 168.64L340.013 159.85H334.823V168.58C334.823 168.86 334.683 169 334.403 169H332.963C332.863 169 332.763 168.96 332.663 168.88C332.583 168.8 332.543 168.7 332.543 168.58V148.84C332.543 148.72 332.583 148.62 332.663 148.54C332.763 148.46 332.863 148.42 332.963 148.42H334.403C334.683 148.42 334.823 148.56 334.823 148.84V157.57H340.013L344.963 148.78C345.023 148.68 345.113 148.6 345.233 148.54C345.353 148.46 345.473 148.42 345.593 148.42H347.363C347.483 148.42 347.563 148.46 347.603 148.54C347.643 148.6 347.633 148.68 347.573 148.78L341.993 158.71L347.573 168.64C347.713 168.88 347.643 169 347.363 169H345.593C345.313 169 345.103 168.88 344.963 168.64ZM353.281 168.58V148.84C353.281 148.72 353.321 148.62 353.401 148.54C353.501 148.46 353.601 148.42 353.701 148.42H364.351C364.951 148.42 365.511 148.54 366.031 148.78C366.571 149 367.041 149.31 367.441 149.71C367.841 150.11 368.151 150.58 368.371 151.12C368.611 151.64 368.731 152.2 368.731 152.8V155.47C368.731 156.07 368.611 156.64 368.371 157.18C368.151 157.72 367.841 158.19 367.441 158.59C367.041 158.97 366.571 159.28 366.031 159.52C365.511 159.74 364.951 159.85 364.351 159.85H355.561V168.58C355.561 168.86 355.421 169 355.141 169H353.701C353.601 169 353.501 168.96 353.401 168.88C353.321 168.8 353.281 168.7 353.281 168.58ZM355.561 157.57H364.351C364.931 157.57 365.421 157.37 365.821 156.97C366.241 156.55 366.451 156.05 366.451 155.47V152.8C366.451 152.22 366.241 151.73 365.821 151.33C365.421 150.91 364.931 150.7 364.351 150.7H355.561V157.57ZM384.729 148.42C384.849 148.42 384.959 148.46 385.059 148.54C385.179 148.62 385.259 148.71 385.299 148.81L389.469 159.25C389.509 159.35 389.539 159.48 389.559 159.64C389.599 159.8 389.619 159.94 389.619 160.06V168.58C389.619 168.86 389.479 169 389.199 169H387.789C387.509 169 387.369 168.86 387.369 168.58V163.03H376.479V168.58C376.479 168.86 376.339 169 376.059 169H374.619C374.339 169 374.199 168.86 374.199 168.58V160.06C374.199 159.94 374.209 159.8 374.229 159.64C374.269 159.48 374.309 159.35 374.349 159.25L378.519 148.81C378.559 148.71 378.639 148.62 378.759 148.54C378.879 148.46 378.989 148.42 379.089 148.42H384.729ZM387.369 160.78V160.06L383.619 150.7H380.229L376.479 160.06V160.78H387.369ZM410.567 154.18C410.567 154.46 410.427 154.6 410.147 154.6H408.707C408.427 154.6 408.287 154.46 408.287 154.18V152.77C408.267 152.19 408.057 151.7 407.657 151.3C407.257 150.9 406.767 150.7 406.187 150.7H399.497C398.917 150.7 398.417 150.91 397.997 151.33C397.597 151.73 397.397 152.22 397.397 152.8V164.62C397.397 165.2 397.597 165.7 397.997 166.12C398.417 166.52 398.917 166.72 399.497 166.72H406.187C406.767 166.72 407.257 166.53 407.657 166.15C408.057 165.75 408.267 165.26 408.287 164.68V163.24C408.287 163.14 408.327 163.05 408.407 162.97C408.487 162.87 408.587 162.82 408.707 162.82H410.147C410.267 162.82 410.367 162.87 410.447 162.97C410.527 163.05 410.567 163.14 410.567 163.24V164.68C410.567 165.28 410.447 165.84 410.207 166.36C409.967 166.88 409.647 167.34 409.247 167.74C408.867 168.12 408.407 168.43 407.867 168.67C407.347 168.89 406.787 169 406.187 169H399.497C398.897 169 398.327 168.89 397.787 168.67C397.267 168.43 396.807 168.12 396.407 167.74C396.027 167.34 395.717 166.87 395.477 166.33C395.257 165.79 395.147 165.22 395.147 164.62V152.8C395.147 152.2 395.257 151.64 395.477 151.12C395.717 150.58 396.027 150.11 396.407 149.71C396.807 149.31 397.267 149 397.787 148.78C398.327 148.54 398.897 148.42 399.497 148.42H406.187C406.787 148.42 407.347 148.54 407.867 148.78C408.407 149 408.867 149.31 409.247 149.71C409.647 150.09 409.967 150.55 410.207 151.09C410.447 151.61 410.567 152.17 410.567 152.77V154.18ZM429.205 168.58V159.85H418.315V168.58C418.315 168.86 418.175 169 417.895 169H416.485C416.205 169 416.065 168.86 416.065 168.58V148.84C416.065 148.56 416.205 148.42 416.485 148.42H417.895C418.175 148.42 418.315 148.56 418.315 148.84V157.57H429.205V148.84C429.205 148.56 429.345 148.42 429.625 148.42H431.065C431.345 148.42 431.485 148.56 431.485 148.84V168.58C431.485 168.86 431.345 169 431.065 169H429.625C429.345 169 429.205 168.86 429.205 168.58ZM445.773 161.95C445.773 161.37 445.563 160.87 445.143 160.45C444.743 160.05 444.253 159.85 443.673 159.85H439.203V166.72H443.673C444.253 166.72 444.743 166.51 445.143 166.09C445.563 165.69 445.773 165.2 445.773 164.62V161.95ZM445.353 157.9C445.893 158.14 446.363 158.45 446.763 158.83C447.143 159.23 447.453 159.7 447.693 160.24C447.933 160.78 448.053 161.35 448.053 161.95V164.62C448.053 165.22 447.933 165.78 447.693 166.3C447.453 166.84 447.143 167.31 446.763 167.71C446.363 168.11 445.893 168.42 445.353 168.64C444.833 168.88 444.273 169 443.673 169H437.343C437.243 169 437.143 168.96 437.043 168.88C436.963 168.8 436.923 168.7 436.923 168.58V148.84C436.923 148.72 436.963 148.62 437.043 148.54C437.143 148.46 437.243 148.42 437.343 148.42H438.783C439.063 148.42 439.203 148.56 439.203 148.84V157.57H443.673C444.273 157.57 444.833 157.68 445.353 157.9ZM451.953 148.42C452.233 148.42 452.373 148.56 452.373 148.84V168.58C452.373 168.7 452.323 168.8 452.223 168.88C452.143 168.96 452.053 169 451.953 169H450.513C450.233 169 450.093 168.86 450.093 168.58V148.84C450.093 148.72 450.133 148.62 450.213 148.54C450.313 148.46 450.413 148.42 450.513 148.42H451.953ZM458.321 168.58V148.84C458.321 148.56 458.461 148.42 458.741 148.42H472.721C473.001 148.42 473.141 148.56 473.141 148.84V150.28C473.141 150.56 473.001 150.7 472.721 150.7H460.571V157.57H471.101C471.201 157.57 471.291 157.62 471.371 157.72C471.471 157.8 471.521 157.89 471.521 157.99V159.43C471.521 159.55 471.471 159.65 471.371 159.73C471.291 159.81 471.201 159.85 471.101 159.85H460.571V166.72H472.721C472.841 166.72 472.941 166.77 473.021 166.87C473.101 166.95 473.141 167.04 473.141 167.14V168.58C473.141 168.86 473.001 169 472.721 169H458.741C458.461 169 458.321 168.86 458.321 168.58ZM22.4277 200.72H30.7077V184.7H24.5277C23.9477 184.7 23.4477 184.9 23.0277 185.3C22.6277 185.72 22.4277 186.22 22.4277 186.8V200.72ZM33.8577 200.72C34.1377 200.72 34.2777 200.86 34.2777 201.14V205.46C34.2777 205.74 34.1377 205.88 33.8577 205.88H32.4177C32.1377 205.88 31.9977 205.74 31.9977 205.46V203H21.1377V205.46C21.1377 205.74 20.9977 205.88 20.7177 205.88H19.2777C18.9977 205.88 18.8577 205.74 18.8577 205.46V201.14C18.8577 200.86 18.9977 200.72 19.2777 200.72H20.1477V186.8C20.1477 186.2 20.2577 185.63 20.4777 185.09C20.7177 184.55 21.0377 184.08 21.4377 183.68C21.8377 183.3 22.2977 182.99 22.8177 182.75C23.3577 182.53 23.9277 182.42 24.5277 182.42H32.5677C32.8477 182.42 32.9877 182.56 32.9877 182.84V200.72H33.8577ZM40.2256 202.58V182.84C40.2256 182.56 40.3656 182.42 40.6456 182.42H54.6256C54.9056 182.42 55.0456 182.56 55.0456 182.84V184.28C55.0456 184.56 54.9056 184.7 54.6256 184.7H42.4756V191.57H53.0056C53.1056 191.57 53.1956 191.62 53.2756 191.72C53.3756 191.8 53.4256 191.89 53.4256 191.99V193.43C53.4256 193.55 53.3756 193.65 53.2756 193.73C53.1956 193.81 53.1056 193.85 53.0056 193.85H42.4756V200.72H54.6256C54.7456 200.72 54.8456 200.77 54.9256 200.87C55.0056 200.95 55.0456 201.04 55.0456 201.14V202.58C55.0456 202.86 54.9056 203 54.6256 203H40.6456C40.3656 203 40.2256 202.86 40.2256 202.58ZM67.2343 202.58V184.7H61.0843C60.8043 184.7 60.6643 184.56 60.6643 184.28V182.84C60.6643 182.56 60.8043 182.42 61.0843 182.42H75.6643C75.9443 182.42 76.0843 182.56 76.0843 182.84V184.28C76.0843 184.56 75.9443 184.7 75.6643 184.7H69.5143V202.58C69.5143 202.7 69.4643 202.8 69.3643 202.88C69.2843 202.96 69.1943 203 69.0943 203H67.6543C67.3743 203 67.2343 202.86 67.2343 202.58ZM92.0823 182.42C92.2023 182.42 92.3123 182.46 92.4123 182.54C92.5323 182.62 92.6123 182.71 92.6523 182.81L96.8223 193.25C96.8623 193.35 96.8923 193.48 96.9123 193.64C96.9523 193.8 96.9723 193.94 96.9723 194.06V202.58C96.9723 202.86 96.8323 203 96.5523 203H95.1423C94.8623 203 94.7223 202.86 94.7223 202.58V197.03H83.8323V202.58C83.8323 202.86 83.6923 203 83.4123 203H81.9723C81.6923 203 81.5523 202.86 81.5523 202.58V194.06C81.5523 193.94 81.5623 193.8 81.5823 193.64C81.6223 193.48 81.6623 193.35 81.7023 193.25L85.8723 182.81C85.9123 182.71 85.9923 182.62 86.1123 182.54C86.2323 182.46 86.3423 182.42 86.4423 182.42H92.0823ZM94.7223 194.78V194.06L90.9723 184.7H87.5823L83.8323 194.06V194.78H94.7223ZM117.74 193.22C117.78 193.34 117.82 193.48 117.86 193.64C117.9 193.8 117.92 193.93 117.92 194.03V202.58C117.92 202.7 117.88 202.8 117.8 202.88C117.7 202.96 117.6 203 117.5 203H116.06C115.78 203 115.64 202.86 115.64 202.58V194.48C115.64 194.36 115.63 194.22 115.61 194.06C115.57 193.9 115.53 193.77 115.49 193.67L111.89 184.7H108.5L104.9 193.67C104.86 193.77 104.83 193.9 104.81 194.06C104.77 194.22 104.75 194.36 104.75 194.48V202.58C104.75 202.86 104.61 203 104.33 203H102.89C102.61 203 102.47 202.86 102.47 202.58V194.03C102.47 193.93 102.49 193.8 102.53 193.64C102.55 193.48 102.58 193.34 102.62 193.22L106.79 182.81C106.83 182.71 106.91 182.62 107.03 182.54C107.15 182.46 107.27 182.42 107.39 182.42H113C113.12 182.42 113.24 182.46 113.36 182.54C113.46 182.62 113.53 182.71 113.57 182.81L117.74 193.22ZM136.529 182.84C136.529 182.56 136.669 182.42 136.949 182.42H138.389C138.669 182.42 138.809 182.56 138.809 182.84V202.58C138.809 202.86 138.669 203 138.389 203H136.949C136.669 203 136.529 202.86 136.529 202.58V194.48L126.539 202.73C126.319 202.91 126.069 203 125.789 203H123.779C123.679 203 123.579 202.96 123.479 202.88C123.399 202.8 123.359 202.7 123.359 202.58V182.84C123.359 182.72 123.399 182.62 123.479 182.54C123.579 182.46 123.679 182.42 123.779 182.42H125.219C125.499 182.42 125.639 182.56 125.639 182.84V200.45L136.529 191.45V182.84ZM168.766 200.72H177.046V184.7H170.866C170.286 184.7 169.786 184.9 169.366 185.3C168.966 185.72 168.766 186.22 168.766 186.8V200.72ZM180.196 200.72C180.476 200.72 180.616 200.86 180.616 201.14V205.46C180.616 205.74 180.476 205.88 180.196 205.88H178.756C178.476 205.88 178.336 205.74 178.336 205.46V203H167.476V205.46C167.476 205.74 167.336 205.88 167.056 205.88H165.616C165.336 205.88 165.196 205.74 165.196 205.46V201.14C165.196 200.86 165.336 200.72 165.616 200.72H166.486V186.8C166.486 186.2 166.596 185.63 166.816 185.09C167.056 184.55 167.376 184.08 167.776 183.68C168.176 183.3 168.636 182.99 169.156 182.75C169.696 182.53 170.266 182.42 170.866 182.42H178.906C179.186 182.42 179.326 182.56 179.326 182.84V200.72H180.196ZM201.354 193.22C201.394 193.34 201.434 193.48 201.474 193.64C201.514 193.8 201.534 193.93 201.534 194.03V202.58C201.534 202.7 201.494 202.8 201.414 202.88C201.314 202.96 201.214 203 201.114 203H199.674C199.394 203 199.254 202.86 199.254 202.58V194.48C199.254 194.36 199.244 194.22 199.224 194.06C199.184 193.9 199.144 193.77 199.104 193.67L195.504 184.7H192.114L188.514 193.67C188.474 193.77 188.444 193.9 188.424 194.06C188.384 194.22 188.364 194.36 188.364 194.48V202.58C188.364 202.86 188.224 203 187.944 203H186.504C186.224 203 186.084 202.86 186.084 202.58V194.03C186.084 193.93 186.104 193.8 186.144 193.64C186.164 193.48 186.194 193.34 186.234 193.22L190.404 182.81C190.444 182.71 190.524 182.62 190.644 182.54C190.764 182.46 190.884 182.42 191.004 182.42H196.614C196.734 182.42 196.854 182.46 196.974 182.54C197.074 182.62 197.144 182.71 197.184 182.81L201.354 193.22ZM209.252 189.47C209.252 190.05 209.452 190.54 209.852 190.94C210.272 191.36 210.772 191.57 211.352 191.57H220.142V184.7H211.352C210.772 184.7 210.272 184.9 209.852 185.3C209.452 185.72 209.252 186.22 209.252 186.8V189.47ZM210.152 193.67C209.212 193.39 208.442 192.87 207.842 192.11C207.262 191.33 206.972 190.45 206.972 189.47V186.8C206.972 186.2 207.082 185.63 207.302 185.09C207.542 184.57 207.862 184.11 208.262 183.71C208.662 183.31 209.132 182.99 209.672 182.75C210.192 182.53 210.752 182.42 211.352 182.42H221.972C222.252 182.42 222.392 182.56 222.392 182.84V202.58C222.392 202.86 222.252 203 221.972 203H220.562C220.282 203 220.142 202.86 220.142 202.58V193.85H213.722L209.822 202.61C209.782 202.71 209.702 202.8 209.582 202.88C209.462 202.96 209.342 203 209.222 203H207.572C207.452 203 207.362 202.96 207.302 202.88C207.262 202.8 207.272 202.71 207.332 202.61L211.172 193.97L210.152 193.67ZM248.779 202.58V182.84C248.779 182.72 248.819 182.62 248.899 182.54C248.999 182.46 249.099 182.42 249.199 182.42H259.849C260.449 182.42 261.009 182.54 261.529 182.78C262.069 183 262.539 183.31 262.939 183.71C263.339 184.11 263.649 184.58 263.869 185.12C264.109 185.64 264.229 186.2 264.229 186.8V189.47C264.229 190.47 263.919 191.36 263.299 192.14L262.879 192.71L263.299 193.28C263.919 194.08 264.229 194.97 264.229 195.95V198.62C264.229 199.22 264.109 199.79 263.869 200.33C263.649 200.87 263.339 201.34 262.939 201.74C262.539 202.12 262.069 202.43 261.529 202.67C261.009 202.89 260.449 203 259.849 203H249.199C249.099 203 248.999 202.96 248.899 202.88C248.819 202.8 248.779 202.7 248.779 202.58ZM251.059 200.72H259.849C260.429 200.72 260.919 200.52 261.319 200.12C261.739 199.7 261.949 199.2 261.949 198.62V195.95C261.949 195.37 261.739 194.88 261.319 194.48C260.919 194.06 260.429 193.85 259.849 193.85H251.059V200.72ZM251.059 191.57H259.849C260.429 191.57 260.919 191.37 261.319 190.97C261.739 190.55 261.949 190.05 261.949 189.47V186.8C261.949 186.22 261.739 185.73 261.319 185.33C260.919 184.91 260.429 184.7 259.849 184.7H251.059V191.57ZM280.198 182.42C280.318 182.42 280.428 182.46 280.528 182.54C280.648 182.62 280.728 182.71 280.768 182.81L284.938 193.25C284.978 193.35 285.008 193.48 285.028 193.64C285.068 193.8 285.088 193.94 285.088 194.06V202.58C285.088 202.86 284.948 203 284.668 203H283.258C282.978 203 282.838 202.86 282.838 202.58V197.03H271.948V202.58C271.948 202.86 271.808 203 271.528 203H270.088C269.808 203 269.668 202.86 269.668 202.58V194.06C269.668 193.94 269.678 193.8 269.698 193.64C269.738 193.48 269.778 193.35 269.818 193.25L273.988 182.81C274.028 182.71 274.108 182.62 274.228 182.54C274.348 182.46 274.458 182.42 274.558 182.42H280.198ZM282.838 194.78V194.06L279.088 184.7H275.698L271.948 194.06V194.78H282.838ZM305.585 182.42C305.685 182.42 305.785 182.46 305.885 182.54C305.965 182.62 306.005 182.72 306.005 182.84V202.58C306.005 202.7 305.965 202.8 305.885 202.88C305.785 202.96 305.685 203 305.585 203H291.005C290.725 203 290.585 202.86 290.585 202.58V182.84C290.585 182.72 290.635 182.62 290.735 182.54C290.815 182.46 290.905 182.42 291.005 182.42H292.445C292.725 182.42 292.865 182.56 292.865 182.84V200.72H297.155V189.2C297.155 189.08 297.205 188.98 297.305 188.9C297.385 188.82 297.475 188.78 297.575 188.78H299.015C299.295 188.78 299.435 188.92 299.435 189.2V200.72H303.725V182.84C303.725 182.56 303.865 182.42 304.145 182.42H305.585ZM324.644 182.84C324.644 182.56 324.784 182.42 325.064 182.42H326.504C326.784 182.42 326.924 182.56 326.924 182.84V202.58C326.924 202.86 326.784 203 326.504 203H325.064C324.784 203 324.644 202.86 324.644 202.58V194.48L314.654 202.73C314.434 202.91 314.184 203 313.904 203H311.894C311.794 203 311.694 202.96 311.594 202.88C311.514 202.8 311.474 202.7 311.474 202.58V182.84C311.474 182.72 311.514 182.62 311.594 182.54C311.694 182.46 311.794 182.42 311.894 182.42H313.334C313.614 182.42 313.754 182.56 313.754 182.84V200.45L324.644 191.45V182.84ZM345.232 198.14L340.132 194L335.002 198.14C334.782 198.32 334.672 198.55 334.672 198.83V202.58C334.672 202.86 334.532 203 334.252 203H332.812C332.712 203 332.612 202.96 332.512 202.88C332.432 202.8 332.392 202.7 332.392 202.58V197.78C332.392 197.68 332.422 197.56 332.482 197.42C332.542 197.28 332.622 197.18 332.722 197.12L338.152 192.71L332.722 188.33C332.502 188.15 332.392 187.92 332.392 187.64V182.84C332.392 182.74 332.432 182.65 332.512 182.57C332.612 182.47 332.712 182.42 332.812 182.42H334.252C334.372 182.42 334.472 182.47 334.552 182.57C334.632 182.65 334.672 182.74 334.672 182.84V186.62C334.672 186.72 334.702 186.84 334.762 186.98C334.822 187.12 334.902 187.22 335.002 187.28L340.132 191.42L345.232 187.28C345.332 187.22 345.412 187.12 345.472 186.98C345.532 186.84 345.562 186.72 345.562 186.62V182.84C345.562 182.74 345.602 182.65 345.682 182.57C345.762 182.47 345.862 182.42 345.982 182.42H347.422C347.542 182.42 347.642 182.47 347.722 182.57C347.802 182.65 347.842 182.74 347.842 182.84V187.64C347.842 187.92 347.732 188.15 347.512 188.33L342.112 192.71L347.512 197.12C347.612 197.18 347.692 197.28 347.752 197.42C347.812 197.56 347.842 197.68 347.842 197.78V202.58C347.842 202.86 347.702 203 347.422 203H345.982C345.702 203 345.562 202.86 345.562 202.58V198.83C345.562 198.55 345.452 198.32 345.232 198.14ZM387.369 202.58V193.85H376.479V202.58C376.479 202.86 376.339 203 376.059 203H374.649C374.369 203 374.229 202.86 374.229 202.58V182.84C374.229 182.56 374.369 182.42 374.649 182.42H376.059C376.339 182.42 376.479 182.56 376.479 182.84V191.57H387.369V182.84C387.369 182.56 387.509 182.42 387.789 182.42H389.229C389.509 182.42 389.649 182.56 389.649 182.84V202.58C389.649 202.86 389.509 203 389.229 203H387.789C387.509 203 387.369 202.86 387.369 202.58ZM399.467 203C398.867 203 398.297 202.89 397.757 202.67C397.237 202.43 396.777 202.12 396.377 201.74C395.997 201.34 395.687 200.87 395.447 200.33C395.227 199.79 395.117 199.22 395.117 198.62V186.8C395.117 186.2 395.227 185.64 395.447 185.12C395.687 184.58 395.997 184.11 396.377 183.71C396.777 183.31 397.237 183 397.757 182.78C398.297 182.54 398.867 182.42 399.467 182.42H406.157C406.757 182.42 407.317 182.54 407.837 182.78C408.377 183 408.847 183.31 409.247 183.71C409.647 184.11 409.957 184.58 410.177 185.12C410.417 185.64 410.537 186.2 410.537 186.8V198.62C410.537 199.22 410.417 199.79 410.177 200.33C409.957 200.87 409.647 201.34 409.247 201.74C408.847 202.12 408.377 202.43 407.837 202.67C407.317 202.89 406.757 203 406.157 203H399.467ZM399.467 184.7C398.887 184.7 398.387 184.91 397.967 185.33C397.567 185.73 397.367 186.22 397.367 186.8V198.62C397.367 199.2 397.567 199.7 397.967 200.12C398.387 200.52 398.887 200.72 399.467 200.72H406.157C406.737 200.72 407.227 200.52 407.627 200.12C408.047 199.7 408.257 199.2 408.257 198.62V186.8C408.257 186.22 408.047 185.73 407.627 185.33C407.227 184.91 406.737 184.7 406.157 184.7H399.467ZM416.005 202.58V182.84C416.005 182.72 416.045 182.62 416.125 182.54C416.225 182.46 416.325 182.42 416.425 182.42H427.075C427.675 182.42 428.235 182.54 428.755 182.78C429.295 183 429.765 183.31 430.165 183.71C430.565 184.11 430.875 184.58 431.095 185.12C431.335 185.64 431.455 186.2 431.455 186.8V189.47C431.455 190.47 431.145 191.36 430.525 192.14L430.105 192.71L430.525 193.28C431.145 194.08 431.455 194.97 431.455 195.95V198.62C431.455 199.22 431.335 199.79 431.095 200.33C430.875 200.87 430.565 201.34 430.165 201.74C429.765 202.12 429.295 202.43 428.755 202.67C428.235 202.89 427.675 203 427.075 203H416.425C416.325 203 416.225 202.96 416.125 202.88C416.045 202.8 416.005 202.7 416.005 202.58ZM418.285 200.72H427.075C427.655 200.72 428.145 200.52 428.545 200.12C428.965 199.7 429.175 199.2 429.175 198.62V195.95C429.175 195.37 428.965 194.88 428.545 194.48C428.145 194.06 427.655 193.85 427.075 193.85H418.285V200.72ZM418.285 191.57H427.075C427.655 191.57 428.145 191.37 428.545 190.97C428.965 190.55 429.175 190.05 429.175 189.47V186.8C429.175 186.22 428.965 185.73 428.545 185.33C428.145 184.91 427.655 184.7 427.075 184.7H418.285V191.57ZM445.744 195.95C445.744 195.37 445.534 194.87 445.114 194.45C444.714 194.05 444.224 193.85 443.644 193.85H439.174V200.72H443.644C444.224 200.72 444.714 200.51 445.114 200.09C445.534 199.69 445.744 199.2 445.744 198.62V195.95ZM445.324 191.9C445.864 192.14 446.334 192.45 446.734 192.83C447.114 193.23 447.424 193.7 447.664 194.24C447.904 194.78 448.024 195.35 448.024 195.95V198.62C448.024 199.22 447.904 199.78 447.664 200.3C447.424 200.84 447.114 201.31 446.734 201.71C446.334 202.11 445.864 202.42 445.324 202.64C444.804 202.88 444.244 203 443.644 203H437.314C437.214 203 437.114 202.96 437.014 202.88C436.934 202.8 436.894 202.7 436.894 202.58V182.84C436.894 182.72 436.934 182.62 437.014 182.54C437.114 182.46 437.214 182.42 437.314 182.42H438.754C439.034 182.42 439.174 182.56 439.174 182.84V191.57H443.644C444.244 191.57 444.804 191.68 445.324 191.9ZM451.924 182.42C452.204 182.42 452.344 182.56 452.344 182.84V202.58C452.344 202.7 452.294 202.8 452.194 202.88C452.114 202.96 452.024 203 451.924 203H450.484C450.204 203 450.064 202.86 450.064 202.58V182.84C450.064 182.72 450.104 182.62 450.184 182.54C450.284 182.46 450.384 182.42 450.484 182.42H451.924ZM470.652 198.14L465.552 194L460.422 198.14C460.202 198.32 460.092 198.55 460.092 198.83V202.58C460.092 202.86 459.952 203 459.672 203H458.232C458.132 203 458.032 202.96 457.932 202.88C457.852 202.8 457.812 202.7 457.812 202.58V197.78C457.812 197.68 457.842 197.56 457.902 197.42C457.962 197.28 458.042 197.18 458.142 197.12L463.572 192.71L458.142 188.33C457.922 188.15 457.812 187.92 457.812 187.64V182.84C457.812 182.74 457.852 182.65 457.932 182.57C458.032 182.47 458.132 182.42 458.232 182.42H459.672C459.792 182.42 459.892 182.47 459.972 182.57C460.052 182.65 460.092 182.74 460.092 182.84V186.62C460.092 186.72 460.122 186.84 460.182 186.98C460.242 187.12 460.322 187.22 460.422 187.28L465.552 191.42L470.652 187.28C470.752 187.22 470.832 187.12 470.892 186.98C470.952 186.84 470.982 186.72 470.982 186.62V182.84C470.982 182.74 471.022 182.65 471.102 182.57C471.182 182.47 471.282 182.42 471.402 182.42H472.842C472.962 182.42 473.062 182.47 473.142 182.57C473.222 182.65 473.262 182.74 473.262 182.84V187.64C473.262 187.92 473.152 188.15 472.932 188.33L467.532 192.71L472.932 197.12C473.032 197.18 473.112 197.28 473.172 197.42C473.232 197.56 473.262 197.68 473.262 197.78V202.58C473.262 202.86 473.122 203 472.842 203H471.402C471.122 203 470.982 202.86 470.982 202.58V198.83C470.982 198.55 470.872 198.32 470.652 198.14ZM130.018 236.58V218.7H123.868C123.588 218.7 123.448 218.56 123.448 218.28V216.84C123.448 216.56 123.588 216.42 123.868 216.42H138.448C138.728 216.42 138.868 216.56 138.868 216.84V218.28C138.868 218.56 138.728 218.7 138.448 218.7H132.298V236.58C132.298 236.7 132.248 236.8 132.148 236.88C132.068 236.96 131.978 237 131.878 237H130.438C130.158 237 130.018 236.86 130.018 236.58ZM144.815 236.58V216.84C144.815 216.56 144.955 216.42 145.235 216.42H159.215C159.495 216.42 159.635 216.56 159.635 216.84V218.28C159.635 218.56 159.495 218.7 159.215 218.7H147.065V225.57H157.595C157.695 225.57 157.785 225.62 157.865 225.72C157.965 225.8 158.015 225.89 158.015 225.99V227.43C158.015 227.55 157.965 227.65 157.865 227.73C157.785 227.81 157.695 227.85 157.595 227.85H147.065V234.72H159.215C159.335 234.72 159.435 234.77 159.515 234.87C159.595 234.95 159.635 235.04 159.635 235.14V236.58C159.635 236.86 159.495 237 159.215 237H145.235C144.955 237 144.815 236.86 144.815 236.58ZM180.494 227.22C180.534 227.34 180.574 227.48 180.614 227.64C180.654 227.8 180.674 227.93 180.674 228.03V236.58C180.674 236.7 180.634 236.8 180.554 236.88C180.454 236.96 180.354 237 180.254 237H178.814C178.534 237 178.394 236.86 178.394 236.58V228.48C178.394 228.36 178.384 228.22 178.364 228.06C178.324 227.9 178.284 227.77 178.244 227.67L174.644 218.7H171.254L167.654 227.67C167.614 227.77 167.584 227.9 167.564 228.06C167.524 228.22 167.504 228.36 167.504 228.48V236.58C167.504 236.86 167.364 237 167.084 237H165.644C165.364 237 165.224 236.86 165.224 236.58V228.03C165.224 227.93 165.244 227.8 165.284 227.64C165.304 227.48 165.334 227.34 165.374 227.22L169.544 216.81C169.584 216.71 169.664 216.62 169.784 216.54C169.904 216.46 170.024 216.42 170.144 216.42H175.754C175.874 216.42 175.994 216.46 176.114 216.54C176.214 216.62 176.284 216.71 176.324 216.81L180.494 227.22ZM192.713 236.46V233.19C192.713 232.91 192.853 232.77 193.133 232.77H194.573C194.673 232.77 194.763 232.81 194.843 232.89C194.943 232.97 194.993 233.07 194.993 233.19V236.46C194.993 236.58 194.943 236.68 194.843 236.76C194.763 236.84 194.673 236.88 194.573 236.88H193.133C192.853 236.88 192.713 236.74 192.713 236.46ZM219.541 216.78C219.601 216.68 219.691 216.6 219.811 216.54C219.951 216.46 220.081 216.42 220.201 216.42H222.031C222.311 216.42 222.451 216.56 222.451 216.84V236.58C222.451 236.86 222.311 237 222.031 237H220.591C220.311 237 220.171 236.86 220.171 236.58V219.27L215.821 226.35C215.761 226.45 215.661 226.54 215.521 226.62C215.401 226.68 215.291 226.71 215.191 226.71H214.291C214.171 226.71 214.041 226.68 213.901 226.62C213.781 226.54 213.691 226.45 213.631 226.35L209.281 219.27V236.58C209.281 236.86 209.141 237 208.861 237H207.451C207.171 237 207.031 236.86 207.031 236.58V216.84C207.031 216.56 207.171 216.42 207.451 216.42H209.281C209.381 216.42 209.491 216.46 209.611 216.54C209.751 216.6 209.851 216.68 209.911 216.78L214.741 223.98L219.541 216.78ZM236.769 229.95C236.769 229.37 236.559 228.87 236.139 228.45C235.739 228.05 235.249 227.85 234.669 227.85H230.199V234.72H234.669C235.249 234.72 235.739 234.51 236.139 234.09C236.559 233.69 236.769 233.2 236.769 232.62V229.95ZM236.349 225.9C236.889 226.14 237.359 226.45 237.759 226.83C238.139 227.23 238.449 227.7 238.689 228.24C238.929 228.78 239.049 229.35 239.049 229.95V232.62C239.049 233.22 238.929 233.78 238.689 234.3C238.449 234.84 238.139 235.31 237.759 235.71C237.359 236.11 236.889 236.42 236.349 236.64C235.829 236.88 235.269 237 234.669 237H228.339C228.239 237 228.139 236.96 228.039 236.88C227.959 236.8 227.919 236.7 227.919 236.58V216.84C227.919 216.72 227.959 216.62 228.039 216.54C228.139 216.46 228.239 216.42 228.339 216.42H229.779C230.059 216.42 230.199 216.56 230.199 216.84V225.57H234.669C235.269 225.57 235.829 225.68 236.349 225.9ZM242.949 216.42C243.229 216.42 243.369 216.56 243.369 216.84V236.58C243.369 236.7 243.319 236.8 243.219 236.88C243.139 236.96 243.049 237 242.949 237H241.509C241.229 237 241.089 236.86 241.089 236.58V216.84C241.089 216.72 241.129 216.62 241.209 216.54C241.309 216.46 241.409 216.42 241.509 216.42H242.949ZM270.056 227.55V226.11C270.056 226.01 270.096 225.92 270.176 225.84C270.256 225.74 270.356 225.69 270.476 225.69H284.456C284.576 225.69 284.676 225.74 284.756 225.84C284.836 225.92 284.876 226.01 284.876 226.11V227.55C284.876 227.83 284.736 227.97 284.456 227.97H270.476C270.196 227.97 270.056 227.83 270.056 227.55ZM324.703 229.95C324.703 229.37 324.493 228.88 324.073 228.48C323.673 228.06 323.183 227.85 322.603 227.85H313.813V234.72H322.603C323.183 234.72 323.673 234.52 324.073 234.12C324.493 233.7 324.703 233.2 324.703 232.62V229.95ZM325.693 226.86C326.093 227.24 326.403 227.7 326.623 228.24C326.863 228.78 326.983 229.35 326.983 229.95V232.62C326.983 233.22 326.863 233.78 326.623 234.3C326.403 234.84 326.093 235.31 325.693 235.71C325.293 236.11 324.823 236.43 324.283 236.67C323.763 236.89 323.203 237 322.603 237H311.953C311.853 237 311.753 236.96 311.653 236.88C311.573 236.8 311.533 236.7 311.533 236.58V216.84C311.533 216.72 311.573 216.62 311.653 216.54C311.753 216.46 311.853 216.42 311.953 216.42H325.483C325.603 216.42 325.703 216.46 325.783 216.54C325.863 216.64 325.903 216.74 325.903 216.84V218.28C325.903 218.56 325.763 218.7 325.483 218.7H313.813V225.57H322.603C323.203 225.57 323.763 225.69 324.283 225.93C324.823 226.15 325.293 226.46 325.693 226.86ZM347.451 216.42C347.731 216.42 347.871 216.56 347.871 216.84V232.62C347.871 233.22 347.751 233.79 347.511 234.33C347.291 234.87 346.981 235.34 346.581 235.74C346.181 236.12 345.711 236.43 345.171 236.67C344.651 236.89 344.091 237 343.491 237H336.801C336.221 237 335.681 236.9 335.181 236.7C334.681 236.48 334.231 236.19 333.831 235.83C333.451 235.47 333.131 235.04 332.871 234.54C332.631 234.06 332.491 233.54 332.451 232.98V231.24C332.451 231.14 332.491 231.05 332.571 230.97C332.651 230.87 332.751 230.82 332.871 230.82H334.281C334.401 230.82 334.501 230.87 334.581 230.97C334.661 231.05 334.701 231.14 334.701 231.24V232.68C334.721 233.26 334.931 233.75 335.331 234.15C335.731 234.53 336.221 234.72 336.801 234.72H343.491C344.071 234.72 344.561 234.52 344.961 234.12C345.381 233.7 345.591 233.2 345.591 232.62V227.85H336.801C336.201 227.85 335.631 227.73 335.091 227.49C334.571 227.27 334.111 226.96 333.711 226.56C333.311 226.18 333.001 225.72 332.781 225.18C332.541 224.64 332.421 224.07 332.421 223.47V216.84C332.421 216.72 332.471 216.62 332.571 216.54C332.651 216.46 332.741 216.42 332.841 216.42H334.281C334.561 216.42 334.701 216.56 334.701 216.84V223.47C334.701 224.05 334.901 224.54 335.301 224.94L335.481 225.09C335.861 225.41 336.301 225.57 336.801 225.57H345.591V216.84C345.591 216.72 345.631 216.62 345.711 216.54C345.811 216.46 345.911 216.42 346.011 216.42H347.451ZM356.939 234.72H365.219V218.7H359.039C358.459 218.7 357.959 218.9 357.539 219.3C357.139 219.72 356.939 220.22 356.939 220.8V234.72ZM368.369 234.72C368.649 234.72 368.789 234.86 368.789 235.14V239.46C368.789 239.74 368.649 239.88 368.369 239.88H366.929C366.649 239.88 366.509 239.74 366.509 239.46V237H355.649V239.46C355.649 239.74 355.509 239.88 355.229 239.88H353.789C353.509 239.88 353.369 239.74 353.369 239.46V235.14C353.369 234.86 353.509 234.72 353.789 234.72H354.659V220.8C354.659 220.2 354.769 219.63 354.989 219.09C355.229 218.55 355.549 218.08 355.949 217.68C356.349 217.3 356.809 216.99 357.329 216.75C357.869 216.53 358.439 216.42 359.039 216.42H367.079C367.359 216.42 367.499 216.56 367.499 216.84V234.72H368.369ZM389.287 216.42C389.567 216.42 389.707 216.56 389.707 216.84V232.62C389.707 233.22 389.587 233.79 389.347 234.33C389.127 234.87 388.817 235.34 388.417 235.74C388.017 236.12 387.547 236.43 387.007 236.67C386.487 236.89 385.927 237 385.327 237H378.637C378.057 237 377.517 236.9 377.017 236.7C376.517 236.48 376.067 236.19 375.667 235.83C375.287 235.47 374.967 235.04 374.707 234.54C374.467 234.06 374.327 233.54 374.287 232.98V231.24C374.287 231.14 374.327 231.05 374.407 230.97C374.487 230.87 374.587 230.82 374.707 230.82H376.117C376.237 230.82 376.337 230.87 376.417 230.97C376.497 231.05 376.537 231.14 376.537 231.24V232.68C376.557 233.26 376.767 233.75 377.167 234.15C377.567 234.53 378.057 234.72 378.637 234.72H385.327C385.907 234.72 386.397 234.52 386.797 234.12C387.217 233.7 387.427 233.2 387.427 232.62V227.85H378.637C378.037 227.85 377.467 227.73 376.927 227.49C376.407 227.27 375.947 226.96 375.547 226.56C375.147 226.18 374.837 225.72 374.617 225.18C374.377 224.64 374.257 224.07 374.257 223.47V216.84C374.257 216.72 374.307 216.62 374.407 216.54C374.487 216.46 374.577 216.42 374.677 216.42H376.117C376.397 216.42 376.537 216.56 376.537 216.84V223.47C376.537 224.05 376.737 224.54 377.137 224.94L377.317 225.09C377.697 225.41 378.137 225.57 378.637 225.57H387.427V216.84C387.427 216.72 387.467 216.62 387.547 216.54C387.647 216.46 387.747 216.42 387.847 216.42H389.287ZM410.175 234.72C410.455 234.72 410.595 234.86 410.595 235.14V239.46C410.595 239.74 410.455 239.88 410.175 239.88H408.735C408.455 239.88 408.315 239.74 408.315 239.46V237H395.595C395.315 237 395.175 236.86 395.175 236.58V216.84C395.175 216.72 395.225 216.62 395.325 216.54C395.405 216.46 395.495 216.42 395.595 216.42H397.035C397.315 216.42 397.455 216.56 397.455 216.84V234.72H401.115V223.2C401.115 223.08 401.155 222.98 401.235 222.9C401.335 222.82 401.435 222.78 401.535 222.78H402.975C403.255 222.78 403.395 222.92 403.395 223.2V234.72H407.025V216.84C407.025 216.56 407.165 216.42 407.445 216.42H408.885C408.985 216.42 409.085 216.46 409.185 216.54C409.265 216.62 409.305 216.72 409.305 216.84V234.72H410.175ZM416.544 236.58V216.84C416.544 216.56 416.684 216.42 416.964 216.42H430.944C431.224 216.42 431.364 216.56 431.364 216.84V218.28C431.364 218.56 431.224 218.7 430.944 218.7H418.794V225.57H429.324C429.424 225.57 429.514 225.62 429.594 225.72C429.694 225.8 429.744 225.89 429.744 225.99V227.43C429.744 227.55 429.694 227.65 429.594 227.73C429.514 227.81 429.424 227.85 429.324 227.85H418.794V234.72H430.944C431.064 234.72 431.164 234.77 431.244 234.87C431.324 234.95 431.364 235.04 431.364 235.14V236.58C431.364 236.86 431.224 237 430.944 237H416.964C416.684 237 416.544 236.86 416.544 236.58ZM437.433 236.58V216.84C437.433 216.56 437.573 216.42 437.853 216.42H451.833C452.113 216.42 452.253 216.56 452.253 216.84V218.28C452.253 218.56 452.113 218.7 451.833 218.7H439.683V225.57H450.213C450.313 225.57 450.403 225.62 450.483 225.72C450.583 225.8 450.633 225.89 450.633 225.99V227.43C450.633 227.55 450.583 227.65 450.483 227.73C450.403 227.81 450.313 227.85 450.213 227.85H439.683V234.72H451.833C451.953 234.72 452.053 234.77 452.133 234.87C452.213 234.95 452.253 235.04 452.253 235.14V236.58C452.253 236.86 452.113 237 451.833 237H437.853C437.573 237 437.433 236.86 437.433 236.58ZM464.441 236.46V233.19C464.441 232.91 464.581 232.77 464.861 232.77H466.301C466.401 232.77 466.491 232.81 466.571 232.89C466.671 232.97 466.721 233.07 466.721 233.19V236.46C466.721 236.58 466.671 236.68 466.571 236.76C466.491 236.84 466.401 236.88 466.301 236.88H464.861C464.581 236.88 464.441 236.74 464.441 236.46Z" fill="black"/>
<rect x="426" y="27" width="50" height="50" rx="25" fill="white"/>
</svg>
