<svg width="1402" height="661" viewBox="0 0 1402 661" fill="none" xmlns="http://www.w3.org/2000/svg">
<path d="M27.3 188.04H111.3V477H27.3V188.04ZM165.933 199.8V188.04H249.933L412.053 464.82V477H328.473L165.933 199.8ZM332.253 293.46V188.04H412.053V429.96L332.253 293.46ZM165.933 234.66L245.733 371.16V477H165.933V234.66Z" fill="#C12439"/>
<path d="M472.4 477V189.4H712.4C721.2 189.4 729.2 191.667 736.4 196.2C743.867 200.467 749.733 206.2 754 213.4C758.267 220.6 760.4 228.6 760.4 237.4V321.8C760.4 330.6 758.267 338.6 754 345.8C749.733 353 743.867 358.867 736.4 363.4C729.2 367.667 721.2 369.8 712.4 369.8H504.8V477H472.4ZM520.4 337H712.4C716.667 337 720.267 335.533 723.2 332.6C726.4 329.667 728 326.067 728 321.8V237.4C728 233.133 726.4 229.533 723.2 226.6C720.267 223.4 716.667 221.8 712.4 221.8H520.4C516.133 221.8 512.4 223.4 509.2 226.6C506.267 229.533 504.8 233.133 504.8 237.4V321.8C504.8 326.067 506.267 329.667 509.2 332.6C512.4 335.533 516.133 337 520.4 337ZM836.006 477C827.206 477 819.073 474.867 811.606 470.6C804.406 466.333 798.673 460.6 794.406 453.4C790.14 445.933 788.006 437.8 788.006 429V189H820.406V429C820.406 433.267 821.873 437 824.806 440.2C828.006 443.133 831.74 444.6 836.006 444.6H1028.01C1032.27 444.6 1035.87 443.133 1038.81 440.2C1042.01 437 1043.61 433.267 1043.61 429V189H1076.01V429C1076.01 437.8 1073.87 445.933 1069.61 453.4C1065.34 460.6 1059.47 466.333 1052.01 470.6C1044.81 474.867 1036.81 477 1028.01 477H836.006ZM1233.66 477V221.4H1105.66V189H1393.66V221.4H1266.06V477H1233.66Z" fill="#A0E73F"/>
</svg>
